# xmcd
#
# Track frame offsets:
#	150
#	14124
#	30672
#	48725
#	65355
#	82289
#	99946
#	115749
#	131356
#	150823
#	169136
#
# Disc length: 2509 seconds
#
# Revision: 2
# Processed by: cddbd v1.5.2PL0 Copyright (c) Steve Scherf et al.
# Submitted via: audiograbber 1.83.01
#
DISCID=8809cb0b
DTITLE=Josh Kelley - Georgia Clay
DYEAR=2011
DGENRE=Country
TTITLE0=Georgia Clay
TTITLE1=A Real Good Try
TTITLE2=Gone Like That
TTITLE3=Baby Blue Eyes
TTITLE4=Naleigh Moon
TTITLE5=Two Cups Of Coffee
TTITLE6=Rainin' Whiskey
TTITLE7=Great Idea
TTITLE8=Learning You
TTITLE9=Ain't Lettin' Go
TTITLE10=Don't You Go
EXTD=
EXTT0=
EXTT1=
EXTT2=
EXTT3=
EXTT4=
EXTT5=
EXTT6=
EXTT7=
EXTT8=
EXTT9=
EXTT10=
PLAYORDER=
